<?xml version="1.0" encoding="utf-8"?>
<!-- Generator: Adobe Illustrator 24.0.2, SVG Export Plug-In . SVG Version: 6.00 Build 0)  -->
<svg version="1.1" xmlns="http://www.w3.org/2000/svg" xmlns:xlink="http://www.w3.org/1999/xlink" x="0px" y="0px"
	 viewBox="0 0 394.39 93" style="enable-background:new 0 0 394.39 93;" xml:space="preserve">
<style type="text/css">
	.st0{display:none;}
	.st1{fill:#CC202C;}
	.st2{fill:#FFFFFF;}
	.st3{fill:#141313}
</style>
<g id="Layer_1" class="st0">
</g>
<g id="Layer_2">
	<g id="Group_135" transform="translate(0 0.452)">
		<g id="Rectangle_18_10_" transform="translate(0 0)">
			<rect id="Rectangle_111" y="-0.45" class="st1" width="94" height="93"/>
		</g>
		<g id="Group_43_10_" transform="translate(8.64 5.305)">
			<g id="Group_38_10_">
				<g id="Group_35_10_" transform="translate(30.213 12.698)">
					<g id="Path_88_10_">
						<path id="Path_99" class="st2" d="M8.11,13.41C8.05,13.35,8,13.29,7.95,13.22c-0.09,0.13-0.15,0.19-0.15,0.19
							C-2.83,10.58,0.5,0.3,0.5,0.3c4.04,2.44,6.22,4.68,7.32,6.6c1.02-1.96,3.1-4.29,7.03-6.9C14.85,0,18.61,10.13,8.11,13.41z"/>
					</g>
				</g>
				<g id="Group_36_10_" transform="translate(27.048 22.36)">
					<g id="Path_89_10_">
						<path id="Path_100" class="st2" d="M13.42,14.77v34.44c0,1.31-1.06,2.36-2.36,2.37l0,0c-1.31,0-2.37-1.06-2.37-2.37V14.89
							c0-0.05,0-0.09,0-0.14c-12.18-3.89-8-14.41-8-14.41C6.37,3.13,9.44,5.7,11,7.9c1.44-2.24,4.37-4.91,9.9-7.9
							C20.91,0,25.71,10.52,13.42,14.77z"/>
					</g>
				</g>
				<g id="Group_37_10_" transform="translate(34.626)">
					<g id="Path_90_10_">
						<path id="Path_101" class="st2" d="M6.95,7.91c-0.09,2.99-1.33,5.83-3.48,7.91c0,0-3.47-3.54-3.47-7.91S3.47,0,3.47,0
							S6.95,3.54,6.95,7.91z"/>
					</g>
				</g>
				<g id="Path_91_10_" transform="translate(0 37.938)">
					<path id="Path_102" class="st2" d="M31.71,2.37v5.2c0,0.04-0.01,0.08-0.01,0.13s0,0.09,0,0.13v15.74
						c-0.13,1.21-1.14,2.12-2.35,2.12c-1.23,0-2.26-0.95-2.36-2.18c0-0.01,0-0.02,0-0.03V13.38c0-0.06,0-0.12-0.01-0.18
						c0-0.02,0-0.03-0.01-0.05c-0.12-1.21-1.14-2.14-2.35-2.14c-0.05,0-0.1,0-0.15,0c-0.57,0.04-1.12,0.28-1.52,0.69
						c-0.34,0.34-0.57,0.77-0.65,1.24v0.01c-0.03,0.14-0.04,0.28-0.04,0.42v0.1c-0.1,0.56-0.41,1.07-0.86,1.42c0,0.01,0,0.01,0,0.01
						c-0.41,0.25-0.87,0.42-1.35,0.5L20,15.41c-0.24,0.04-0.49,0.04-0.73-0.02c-0.28-0.08-0.55-0.22-0.77-0.41
						c-0.58-0.54-1.1-1.16-1.54-1.82c-0.42-0.64-0.94-1.22-1.54-1.7c-0.23-0.17-0.49-0.29-0.77-0.37c-0.26-0.08-0.52-0.16-0.77-0.22
						c-0.51-0.12-1.02-0.19-1.54-0.2c-0.51-0.01-1.03,0.02-1.54,0.05s-1.03,0.05-1.54,0.12c-1.03,0.13-2.06,0.58-3.09,0.75
						c-0.51,0.09-1.03,0.11-1.54,0.08c-0.52-0.02-1.03-0.07-1.54-0.15c-0.52-0.08-1.04-0.19-1.54-0.34
						c-0.53-0.15-1.05-0.36-1.54-0.62v-0.15c0.49-0.26,1.01-0.47,1.54-0.62c0.51-0.15,1.02-0.26,1.54-0.34
						C3.6,9.37,4.12,9.31,4.63,9.29c0.52-0.03,1.03,0,1.54,0.08C7.2,9.55,8.23,10,9.26,10.13c0.51,0.07,1.03,0.08,1.54,0.12
						s1.03,0.06,1.54,0.05c0.52-0.01,1.04-0.08,1.54-0.2c0.26-0.06,0.51-0.13,0.77-0.22c0.28-0.08,0.54-0.2,0.77-0.37
						c0.6-0.48,1.12-1.06,1.54-1.7c0.38-0.55,0.8-1.07,1.25-1.56c0.03-0.03,0.07-0.07,0.1-0.09s0.07-0.06,0.1-0.08
						C18.44,6.04,18.47,6.02,18.5,6c0,0,0.01-0.01,0.02-0.01c0.03-0.03,0.07-0.06,0.11-0.08c0.28-0.19,0.6-0.32,0.94-0.37h0.01
						c0.16-0.01,0.33,0.01,0.49,0.03c0.55,0.09,1.08,0.3,1.54,0.62c0,0,0.01,0.01,0.02,0.01l0,0c0.34,0.34,0.57,0.78,0.65,1.25v0.09
						c0,0.14,0.01,0.28,0.04,0.42c0.19,1.06,1.08,1.86,2.15,1.94c0.06,0,0.12,0.01,0.18,0.01c1.2,0,2.22-0.9,2.35-2.1
						C27,7.71,27,7.62,27,7.53V2.11c0.06-0.53,0.3-1.03,0.68-1.41C28.13,0.25,28.73,0,29.35,0c1.21,0,2.23,0.92,2.35,2.13
						C31.71,2.21,31.71,2.29,31.71,2.37z"/>
				</g>
				<g id="Path_92_10_" transform="translate(18.216 44.078)">
					<path id="Path_103" class="st2" d="M0.04,0.04C0.06,0.02,0.08,0.01,0.1,0C0.07,0.03,0.03,0.06,0,0.1
						C0.01,0.08,0.03,0.06,0.04,0.04z"/>
				</g>
				<g id="Path_93_10_" transform="translate(20.002 52.843)">
					<path id="Path_104" class="st2" d="M0.05,0.5C0.52,0.42,0.98,0.25,1.39,0C1,0.32,0.51,0.49,0,0.51L0.05,0.5z"/>
				</g>
				<g id="Path_94_10_" transform="translate(19.562 43.432)">
					<path id="Path_105" class="st2" d="M2.04,0.69c0,0-0.01-0.01-0.01-0.01C1.57,0.36,1.04,0.15,0.49,0.06
						C0.33,0.03,0.16,0.02,0,0.03C0.12,0.01,0.25,0,0.37,0C1,0,1.6,0.25,2.04,0.69z"/>
				</g>
				<g id="Path_95_10_" transform="translate(18.612 43.457)">
					<path id="Path_106" class="st2" d="M0.94,0C0.6,0.06,0.28,0.18,0,0.37c0.2-0.15,0.42-0.26,0.67-0.33C0.76,0.02,0.85,0,0.94,0z"
						/>
				</g>
				<g id="Path_96_10_" transform="translate(44.548 37.938)">
					<path id="Path_107" class="st2" d="M0,2.37v5.2C0,7.61,0.01,7.65,0.01,7.7c0,0.04,0,0.09,0,0.13v15.74
						c0.13,1.21,1.14,2.12,2.35,2.12c1.23,0,2.26-0.95,2.36-2.18c0-0.01,0-0.02,0-0.03V13.38c0-0.06,0-0.12,0.01-0.18
						c0-0.02,0-0.03,0-0.05c0.12-1.21,1.14-2.14,2.35-2.14c0.05,0,0.1,0,0.15,0c0.58,0.04,1.12,0.28,1.52,0.69
						c0.34,0.34,0.57,0.77,0.65,1.24v0.01c0.02,0.14,0.04,0.28,0.04,0.42v0.1c0.1,0.56,0.41,1.07,0.86,1.42c0,0.01,0,0.01,0,0.01
						c0.41,0.25,0.87,0.42,1.35,0.5l0.05,0.01c0.24,0.04,0.49,0.04,0.72-0.02c0.28-0.08,0.55-0.22,0.77-0.41
						c0.58-0.54,1.1-1.16,1.54-1.82c0.42-0.64,0.94-1.22,1.54-1.7c0.23-0.17,0.49-0.29,0.77-0.37c0.26-0.08,0.52-0.16,0.77-0.22
						c0.51-0.12,1.02-0.19,1.54-0.2c0.51-0.01,1.03,0.02,1.54,0.05s1.03,0.05,1.54,0.12c1.03,0.13,2.06,0.58,3.08,0.75
						c0.51,0.09,1.03,0.11,1.54,0.08c0.52-0.02,1.03-0.07,1.54-0.15c0.52-0.08,1.04-0.19,1.54-0.34c0.54-0.15,1.05-0.36,1.54-0.62
						v-0.15c-0.49-0.26-1.01-0.47-1.54-0.62c-0.51-0.15-1.02-0.26-1.54-0.34c-0.51-0.08-1.03-0.13-1.54-0.15
						c-0.52-0.03-1.03,0-1.54,0.08c-1.03,0.18-2.06,0.62-3.08,0.75c-0.51,0.07-1.03,0.08-1.54,0.12s-1.03,0.06-1.54,0.05
						c-0.52-0.01-1.04-0.08-1.54-0.2c-0.26-0.06-0.51-0.13-0.77-0.22c-0.28-0.08-0.54-0.2-0.77-0.37c-0.6-0.48-1.12-1.06-1.54-1.7
						c-0.38-0.55-0.8-1.07-1.25-1.56c-0.03-0.03-0.07-0.07-0.1-0.09s-0.07-0.06-0.1-0.08C13.27,6.04,13.24,6.02,13.21,6L13.2,5.98
						c-0.03-0.03-0.07-0.06-0.11-0.08c-0.28-0.19-0.6-0.32-0.94-0.37h-0.01c-0.16-0.01-0.33,0.01-0.49,0.03
						c-0.55,0.09-1.08,0.3-1.54,0.62c0,0-0.01,0.01-0.01,0.01s0,0,0,0C9.76,6.53,9.53,6.97,9.44,7.44v0.09
						c0,0.14-0.01,0.28-0.04,0.42C9.22,9.01,8.33,9.81,7.26,9.89C7.2,9.89,7.14,9.9,7.08,9.9c-1.2,0-2.22-0.9-2.35-2.1
						C4.72,7.71,4.71,7.62,4.71,7.53V2.11C4.65,1.57,4.41,1.08,4.03,0.7C3.59,0.25,2.99,0,2.36,0C1.15,0,0.13,0.92,0.01,2.13
						C0,2.21,0,2.29,0,2.37z"/>
				</g>
			</g>
		</g>
	</g>
	<g id="Group_138" transform="translate(141.598 11.783)">
		<g id="Group_136" transform="translate(1.466)">
			<path id="Path_108" class="st3" d="M0,1.75h5.71c6.56,0,10.43,3.53,10.43,10.61S12.26,23.15,5.9,23.15H0L0,1.75z M5.46,20.08
				c4.31,0,6.78-2.45,6.78-7.71S9.76,4.83,5.46,4.83H3.79v15.25L5.46,20.08z"/>
			<path id="Path_109" class="st3" d="M19.14,2.13c0.01-1.19,0.98-2.15,2.17-2.14c0.06,0,0.11,0,0.16,0.01
				c1.19-0.1,2.23,0.78,2.32,1.97c0,0.05,0.01,0.11,0.01,0.16c-0.02,1.2-1,2.16-2.2,2.14c-0.04,0-0.09,0-0.13-0.01
				c-1.19,0.09-2.24-0.81-2.32-2C19.14,2.22,19.14,2.17,19.14,2.13z M19.57,7.08h3.77v16.07h-3.77V7.08z"/>
			<path id="Path_110" class="st3" d="M26.49,26.07c0.1-1.48,0.98-2.79,2.32-3.43v-0.13c-0.93-0.57-1.48-1.59-1.45-2.68
				c0.09-1.22,0.75-2.34,1.78-3V16.7c-1.33-1.01-2.11-2.57-2.12-4.24c0-3.69,2.98-5.77,6.35-5.77c0.81,0,1.62,0.13,2.38,0.39h5.75
				v2.8h-2.93c0.61,0.77,0.93,1.72,0.92,2.7c0,3.57-2.71,5.48-6.11,5.48c-0.74-0.01-1.48-0.15-2.17-0.42
				c-0.5,0.35-0.79,0.93-0.79,1.54c0,0.9,0.65,1.45,2.6,1.45h2.86c3.84,0,5.88,1.19,5.88,3.97c0,3.17-3.32,5.67-8.57,5.67
				C29.34,30.26,26.49,28.88,26.49,26.07z M38.11,25.21c0-1.24-1-1.61-2.83-1.61h-2.21c-0.73,0.02-1.46-0.06-2.17-0.22
				c-0.74,0.46-1.2,1.25-1.24,2.12c0,1.47,1.57,2.32,4.1,2.32C36.34,27.81,38.11,26.59,38.11,25.21L38.11,25.21z M36.15,12.46
				c0-2.02-1.22-3.17-2.79-3.17s-2.79,1.14-2.79,3.17s1.24,3.23,2.79,3.23S36.14,14.5,36.15,12.46L36.15,12.46z"/>
			<path id="Path_111" class="st3" d="M43.62,2.13c0.01-1.19,0.98-2.15,2.17-2.14c0.05,0,0.11,0,0.16,0.01
				c1.19-0.1,2.23,0.78,2.32,1.97c0,0.05,0.01,0.11,0.01,0.16c-0.02,1.2-1,2.16-2.2,2.14c-0.04,0-0.09,0-0.13-0.01
				c-1.19,0.09-2.23-0.81-2.32-2C43.62,2.22,43.62,2.17,43.62,2.13z M44.05,7.08h3.77v16.07h-3.77V7.08z"/>
			<path id="Path_112" class="st3" d="M52.63,17.73v-7.65h-2.29V7.25l2.49-0.17l0.44-4.39h3.13v4.38h4.1v3h-4.1v7.65
				c0,1.89,0.73,2.82,2.28,2.82c0.58-0.03,1.14-0.15,1.67-0.37l0.64,2.77c-1.06,0.37-2.17,0.57-3.29,0.59
				C54,23.55,52.63,21.2,52.63,17.73z"/>
			<path id="Path_113" class="st3" d="M61.77,18.83c0-3.44,2.85-5.23,9.45-5.94c-0.05-1.73-0.75-3.17-2.92-3.17
				c-1.62,0.1-3.18,0.65-4.52,1.58L62.4,8.79c1.96-1.31,4.25-2.04,6.6-2.11c4.02,0,5.99,2.47,5.99,6.95v9.52H71.9l-0.29-1.78h-0.1
				c-1.35,1.3-3.12,2.07-4.99,2.17c-2.48,0.14-4.61-1.75-4.75-4.23C61.76,19.15,61.76,18.99,61.77,18.83z M71.22,18.85v-3.61
				c-4.36,0.55-5.81,1.69-5.81,3.31c0,1.42,0.97,2.04,2.32,2.04C69.08,20.5,70.33,19.87,71.22,18.85z"/>
			<path id="Path_114" class="st3" d="M78.96,19.02V0.04h3.77v19.17c0,0.93,0.42,1.26,0.81,1.26c0.2,0,0.4-0.02,0.59-0.07l0.47,2.81
				c-0.64,0.24-1.31,0.35-1.99,0.33C79.95,23.55,78.96,21.82,78.96,19.02z"/>
			<path id="Path_115" class="st3" d="M103.67,1.75h4.45l6.98,21.4h-4.02l-3.26-11.39c-0.68-2.27-1.31-4.71-1.94-7.05h-0.13
				c-0.59,2.37-1.22,4.79-1.9,7.05l-3.29,11.39h-3.88L103.67,1.75z M100.82,14.38h10.08v2.98h-10.08V14.38z"/>
			<path id="Path_116" class="st3" d="M115.76,26.07c0.1-1.48,0.98-2.79,2.32-3.43v-0.13c-0.93-0.57-1.48-1.59-1.45-2.68
				c0.09-1.22,0.75-2.34,1.78-3V16.7c-1.33-1.01-2.11-2.57-2.12-4.24c0-3.69,2.98-5.77,6.35-5.77c0.81,0,1.62,0.13,2.38,0.39h5.75
				v2.8h-2.93c0.61,0.77,0.93,1.72,0.92,2.7c0,3.57-2.71,5.48-6.11,5.48c-0.74-0.01-1.48-0.15-2.17-0.42
				c-0.5,0.35-0.79,0.93-0.79,1.54c0,0.9,0.65,1.45,2.6,1.45h2.86c3.84,0,5.88,1.19,5.88,3.97c0,3.17-3.33,5.67-8.57,5.67
				C118.61,30.26,115.76,28.88,115.76,26.07z M127.38,25.21c0-1.24-1-1.61-2.83-1.61h-2.21c-0.73,0.02-1.46-0.06-2.17-0.22
				c-0.73,0.46-1.2,1.25-1.24,2.12c0,1.47,1.57,2.32,4.1,2.32C125.62,27.81,127.38,26.59,127.38,25.21z M125.42,12.46
				c0-2.02-1.22-3.17-2.79-3.17s-2.79,1.14-2.79,3.17s1.24,3.23,2.79,3.23S125.42,14.5,125.42,12.46L125.42,12.46z"/>
			<path id="Path_117" class="st3" d="M133.32,7.08h3.09l0.29,2.87h0.1c1.15-2.09,2.85-3.26,4.57-3.26
				c0.62-0.03,1.25,0.08,1.82,0.33l-0.65,3.27c-0.53-0.17-1.09-0.26-1.65-0.26c-1.28,0-2.83,0.88-3.8,3.32v9.8h-3.77L133.32,7.08z"
				/>
			<path id="Path_118" class="st3" d="M144.54,2.13c0.01-1.19,0.98-2.15,2.17-2.14c0.06,0,0.11,0,0.16,0.01
				c1.19-0.1,2.22,0.78,2.32,1.97c0,0.05,0.01,0.11,0.01,0.16c-0.02,1.2-1,2.16-2.2,2.14c-0.04,0-0.09,0-0.13-0.01
				c-1.19,0.09-2.24-0.81-2.32-2C144.54,2.22,144.54,2.17,144.54,2.13z M144.97,7.08h3.77v16.07h-3.77V7.08z"/>
			<path id="Path_119" class="st3" d="M151.93,15.13c0-5.35,3.78-8.44,8.06-8.44c1.74-0.01,3.42,0.63,4.7,1.81l-1.83,2.45
				c-0.71-0.72-1.66-1.14-2.67-1.18c-2.59,0-4.38,2.15-4.38,5.37s1.77,5.34,4.27,5.34c1.24-0.06,2.41-0.55,3.32-1.39l1.53,2.49
				c-1.45,1.28-3.32,1.98-5.25,1.98C155.29,23.55,151.93,20.46,151.93,15.13z"/>
			<path id="Path_120" class="st3" d="M167.37,17.16V7.08h3.77v9.59c0,2.64,0.76,3.64,2.5,3.64c1.41,0,2.34-0.65,3.56-2.22V7.08
				h3.77v16.07h-3.09l-0.29-2.37h-0.1c-1.19,1.68-3.11,2.71-5.17,2.76C168.87,23.55,167.37,21.22,167.37,17.16z"/>
			<path id="Path_121" class="st3" d="M185.19,19.02V0.04h3.77v19.17c0,0.93,0.42,1.26,0.81,1.26c0.2,0,0.4-0.02,0.59-0.07
				l0.47,2.81c-0.64,0.24-1.31,0.35-1.99,0.33C186.17,23.55,185.19,21.82,185.19,19.02z"/>
			<path id="Path_122" class="st3" d="M194.06,17.73v-7.65h-2.29V7.25l2.49-0.17l0.44-4.39h3.13v4.38h4.1v3h-4.1v7.65
				c0,1.89,0.73,2.82,2.28,2.82c0.58-0.03,1.14-0.15,1.67-0.37l0.64,2.77c-1.06,0.37-2.17,0.57-3.29,0.59
				C195.44,23.55,194.06,21.2,194.06,17.73z"/>
			<path id="Path_123" class="st3" d="M204.57,17.16V7.08h3.77v9.59c0,2.64,0.76,3.64,2.5,3.64c1.41,0,2.34-0.65,3.56-2.22V7.08
				h3.77v16.07h-3.09l-0.29-2.37h-0.1c-1.19,1.68-3.11,2.71-5.17,2.76C206.08,23.55,204.57,21.22,204.57,17.16z"/>
			<path id="Path_124" class="st3" d="M222.4,7.08h3.09l0.29,2.87h0.1c1.15-2.09,2.85-3.26,4.57-3.26c0.62-0.03,1.25,0.08,1.82,0.33
				l-0.65,3.27c-0.53-0.17-1.09-0.26-1.65-0.26c-1.28,0-2.83,0.88-3.8,3.32v9.8h-3.77L222.4,7.08z"/>
			<path id="Path_125" class="st3" d="M232.66,15.13c0-5.22,3.63-8.44,7.41-8.44c4.35,0,6.64,3.14,6.64,7.63
				c0,0.61-0.05,1.23-0.16,1.83h-10.2c0.31,2.85,2.15,4.48,4.74,4.48c1.33-0.02,2.63-0.42,3.73-1.16l1.28,2.34
				c-1.62,1.11-3.54,1.72-5.51,1.74C236.14,23.55,232.66,20.43,232.66,15.13z M243.44,13.58c0-2.47-1.1-3.98-3.3-3.98
				c-1.87,0-3.52,1.4-3.85,3.98H243.44z"/>
		</g>
		<g id="Group_137" transform="translate(0 40.866)">
			<path id="Path_126" class="st3" d="M0,20.41l2.21-2.6c1.49,1.48,3.48,2.35,5.58,2.44c2.41,0,3.73-1.09,3.73-2.76
				c0-1.76-1.38-2.32-3.32-3.15l-2.92-1.27C3.16,12.2,0.94,10.53,0.94,7.4c0-3.41,3.01-6.03,7.19-6.03c2.47,0,4.85,0.98,6.6,2.73
				L12.78,6.5c-1.26-1.17-2.92-1.83-4.65-1.84c-2.03,0-3.35,0.95-3.35,2.51c0,1.68,1.63,2.3,3.4,3.03l2.89,1.21
				c2.55,1.06,4.33,2.67,4.33,5.77c0,3.47-2.88,6.36-7.68,6.36C4.83,23.55,2.06,22.42,0,20.41z"/>
			<path id="Path_127" class="st3" d="M17.36,15.13c0-5.35,3.64-8.44,7.64-8.44s7.64,3.09,7.64,8.44c0,5.33-3.64,8.42-7.64,8.42
				S17.36,20.46,17.36,15.13z M28.77,15.13c0-3.22-1.41-5.37-3.77-5.37s-3.77,2.15-3.77,5.37s1.41,5.34,3.77,5.34
				S28.77,18.35,28.77,15.13z"/>
			<path id="Path_128" class="st3" d="M35.63,19.02V0.04h3.77v19.17c0,0.93,0.42,1.26,0.81,1.26c0.2,0,0.4-0.02,0.59-0.06l0.47,2.81
				c-0.64,0.24-1.31,0.35-1.99,0.33C36.61,23.54,35.63,21.82,35.63,19.02z"/>
			<path id="Path_129" class="st3" d="M43.76,17.16V7.08h3.77v9.59c0,2.64,0.76,3.64,2.5,3.64c1.41,0,2.34-0.66,3.56-2.22V7.08h3.77
				v16.07h-3.09l-0.29-2.37h-0.1c-1.19,1.68-3.11,2.71-5.17,2.76C45.27,23.55,43.76,21.22,43.76,17.16z"/>
			<path id="Path_130" class="st3" d="M62.14,17.73v-7.66h-2.29V7.25l2.49-0.17l0.44-4.39h3.13v4.39h4.1v3h-4.1v7.65
				c0,1.89,0.73,2.82,2.28,2.82c0.58-0.03,1.14-0.15,1.67-0.37l0.64,2.78c-1.06,0.37-2.17,0.57-3.29,0.59
				C63.52,23.54,62.14,21.2,62.14,17.73z"/>
			<path id="Path_131" class="st3" d="M72.41,2.13c0.01-1.19,0.98-2.15,2.17-2.14c0.05,0,0.11,0,0.16,0.01
				c1.19-0.1,2.23,0.79,2.32,1.97c0,0.05,0.01,0.11,0.01,0.16c-0.02,1.2-1,2.16-2.2,2.14c-0.04,0-0.09,0-0.13-0.01
				c-1.19,0.09-2.23-0.81-2.32-2C72.41,2.22,72.41,2.18,72.41,2.13z M72.84,7.08h3.77v16.07h-3.77V7.08z"/>
			<path id="Path_132" class="st3" d="M79.8,15.13c0-5.35,3.64-8.44,7.64-8.44s7.64,3.09,7.64,8.44c0,5.33-3.64,8.42-7.64,8.42
				S79.8,20.46,79.8,15.13z M91.21,15.13c0-3.22-1.41-5.37-3.77-5.37s-3.77,2.15-3.77,5.37s1.41,5.34,3.77,5.34
				S91.21,18.35,91.21,15.13z"/>
			<path id="Path_133" class="st3" d="M98.27,7.08h3.09l0.29,2.17h0.1c1.34-1.54,3.24-2.46,5.27-2.57c3.44,0,4.95,2.33,4.95,6.39
				v10.08h-3.77v-9.59c0-2.64-0.76-3.64-2.5-3.64c-1.41,0-2.34,0.69-3.67,2v11.23h-3.77L98.27,7.08z"/>
			<path id="Path_134" class="st3" d="M114.44,21.31l1.75-2.4c1.23,1.09,2.8,1.73,4.44,1.79c1.75,0,2.58-0.82,2.58-1.92
				c0-1.35-1.74-1.95-3.46-2.6c-2.11-0.79-4.52-2-4.52-4.69c0-2.79,2.25-4.8,5.85-4.8c1.95,0.02,3.83,0.7,5.34,1.92l-1.73,2.32
				c-0.99-0.83-2.23-1.33-3.52-1.4c-1.62,0-2.38,0.77-2.38,1.78c0,1.27,1.62,1.75,3.36,2.4c2.17,0.81,4.61,1.86,4.61,4.86
				c0,2.76-2.19,4.99-6.24,4.99C118.3,23.5,116.16,22.71,114.44,21.31z"/>
			<path id="Path_135" class="st3" d="M138.52,1.75h3.8v8.6h8.65v-8.6h3.79v21.4h-3.79v-9.49h-8.65v9.49h-3.8V1.75z"/>
			<path id="Path_136" class="st3" d="M159.15,17.16V7.08h3.77v9.59c0,2.64,0.76,3.64,2.5,3.64c1.41,0,2.34-0.66,3.56-2.22V7.08
				h3.77v16.07h-3.09l-0.29-2.37h-0.1c-1.19,1.68-3.11,2.71-5.17,2.76C160.65,23.55,159.15,21.22,159.15,17.16z"/>
			<path id="Path_137" class="st3" d="M180.37,21.46h-0.1l-0.33,1.69h-2.97V0.04h3.77v5.98l-0.1,2.67c1.26-1.2,2.9-1.91,4.64-2
				c4.02,0,6.34,3.22,6.34,8.16c0,5.52-3.29,8.7-6.86,8.7C183.08,23.45,181.51,22.71,180.37,21.46z M187.74,14.91
				c0-3.21-1.05-5.1-3.49-5.1c-1.37,0.1-2.63,0.75-3.51,1.81v7.49c0.88,0.82,2.02,1.29,3.22,1.33
				C186.1,20.43,187.74,18.55,187.74,14.91L187.74,14.91z"/>
		</g>
	</g>
</g>
</svg>
